HIERARCHY
ROOT Hips
{
	OFFSET 0.000000 97.167313 0.000000
	CHANNELS 6 Xposition Yposition Zposition Xrotation Yrotation Zrotation
	JOINT Spine
	{
		OFFSET 0.000000 13.784798 0.064400
		CHANNELS 3 Xrotation Yrotation Zrotation
		JOINT Spine1
		{
			OFFSET 0.000000 12.037903 0.404700
			CHANNELS 3 Xrotation Yrotation Zrotation
			JOINT Spine2
			{
				OFFSET 0.000000 17.795601 0.420200
				CHANNELS 3 Xrotation Yrotation Zrotation
				JOINT Neck
				{
					OFFSET 0.000000 39.131302 11.954600
					CHANNELS 3 Xrotation Yrotation Zrotation
					JOINT Head
					{
						OFFSET 0.000000 14.456192 15.627699
						CHANNELS 3 Xrotation Yrotation Zrotation
						JOINT HeadTop_End
						{
							OFFSET 0.000000 15.703506 7.603401
							CHANNELS 3 Xrotation Yrotation Zrotation
							End Site
							{
								OFFSET 0.000000 17.447403 0.000000
							}
						}
					}
				}
				JOINT LeftShoulder
				{
					OFFSET 17.399500 24.608795 1.168800
					CHANNELS 3 Xrotation Yrotation Zrotation
					JOINT LeftArm
					{
						OFFSET 18.980635 5.765305 1.818600
						CHANNELS 3 Xrotation Yrotation Zrotation
						JOINT LeftForeArm
						{
							OFFSET 49.290169 0.000000 0.000000
							CHANNELS 3 Xrotation Yrotation Zrotation
							JOINT LeftHand
							{
								OFFSET 31.562012 0.000000 0.000000
								CHANNELS 3 Xrotation Yrotation Zrotation
								JOINT LeftHandThumb1
								{
									OFFSET 6.133995 -4.388519 7.076070
									CHANNELS 3 Xrotation Yrotation Zrotation
									JOINT LeftHandThumb2
									{
										OFFSET 6.037666 -3.485840 3.485847
										CHANNELS 3 Xrotation Yrotation Zrotation
										JOINT LeftHandThumb3
										{
											OFFSET 6.496506 -3.750763 3.750761
											CHANNELS 3 Xrotation Yrotation Zrotation
											JOINT LeftHandThumb4
											{
												OFFSET 5.616882 -3.242905 3.242910
												CHANNELS 3 Xrotation Yrotation Zrotation
												End Site
												{
													OFFSET -1.254608 7.132141 0.375429
												}
											}
										}
									}
								}
								JOINT LeftHandPinky1
								{
									OFFSET 18.920792 -0.453171 -11.426712
									CHANNELS 3 Xrotation Yrotation Zrotation
									JOINT LeftHandPinky2
									{
										OFFSET 4.919586 0.000000 0.000000
										CHANNELS 3 Xrotation Yrotation Zrotation
										JOINT LeftHandPinky3
										{
											OFFSET 5.233047 0.000000 0.000000
											CHANNELS 3 Xrotation Yrotation Zrotation
											JOINT LeftHandPinky4
											{
												OFFSET 5.571716 0.000000 0.000000
												CHANNELS 3 Xrotation Yrotation Zrotation
												End Site
												{
													OFFSET -3.459808 4.342407 -0.466164
												}
											}
										}
									}
								}
								JOINT LeftHandRing1
								{
									OFFSET 22.726120 -0.094986 -6.500475
									CHANNELS 3 Xrotation Yrotation Zrotation
									JOINT LeftHandRing2
									{
										OFFSET 6.408615 0.000000 0.000000
										CHANNELS 3 Xrotation Yrotation Zrotation
										JOINT LeftHandRing3
										{
											OFFSET 6.150223 0.000000 0.000000
											CHANNELS 3 Xrotation Yrotation Zrotation
											JOINT LeftHandRing4
											{
												OFFSET 6.145386 0.000000 0.000000
												CHANNELS 3 Xrotation Yrotation Zrotation
												End Site
												{
													OFFSET -3.671402 4.923981 -0.202372
												}
											}
										}
									}
								}
								JOINT LeftHandMiddle1
								{
									OFFSET 23.373947 0.000000 0.000001
									CHANNELS 3 Xrotation Yrotation Zrotation
									JOINT LeftHandMiddle2
									{
										OFFSET 6.996567 0.000000 0.000000
										CHANNELS 3 Xrotation Yrotation Zrotation
										JOINT LeftHandMiddle3
										{
											OFFSET 7.015945 0.000000 0.000000
											CHANNELS 3 Xrotation Yrotation Zrotation
											JOINT LeftHandMiddle4
											{
												OFFSET 7.721573 0.000000 0.000000
												CHANNELS 3 Xrotation Yrotation Zrotation
												End Site
												{
													OFFSET -4.651108 6.158463 0.251582
												}
											}
										}
									}
								}
								JOINT LeftHandIndex1
								{
									OFFSET 21.310577 -0.490082 6.209344
									CHANNELS 3 Xrotation Yrotation Zrotation
									JOINT LeftHandIndex2
									{
										OFFSET 7.536453 0.000000 0.000000
										CHANNELS 3 Xrotation Yrotation Zrotation
										JOINT LeftHandIndex3
										{
											OFFSET 7.512344 0.000000 0.000000
											CHANNELS 3 Xrotation Yrotation Zrotation
											JOINT LeftHandIndex4
											{
												OFFSET 10.212402 0.000000 0.000001
												CHANNELS 3 Xrotation Yrotation Zrotation
												End Site
												{
													OFFSET -5.180801 8.690506 1.388433
												}
											}
										}
									}
								}
							}
						}
					}
				}
				JOINT RightShoulder
				{
					OFFSET -17.399500 24.608795 1.168800
					CHANNELS 3 Xrotation Yrotation Zrotation
					JOINT RightArm
					{
						OFFSET -18.980635 5.765305 1.818600
						CHANNELS 3 Xrotation Yrotation Zrotation
						JOINT RightForeArm
						{
							OFFSET -49.290169 0.000000 0.000000
							CHANNELS 3 Xrotation Yrotation Zrotation
							JOINT RightHand
							{
								OFFSET -31.562012 0.000000 0.000000
								CHANNELS 3 Xrotation Yrotation Zrotation
								JOINT RightHandThumb1
								{
									OFFSET -6.133995 -4.388519 7.076070
									CHANNELS 3 Xrotation Yrotation Zrotation
									JOINT RightHandThumb2
									{
										OFFSET -6.037666 -3.485840 3.485847
										CHANNELS 3 Xrotation Yrotation Zrotation
										JOINT RightHandThumb3
										{
											OFFSET -6.496506 -3.750763 3.750761
											CHANNELS 3 Xrotation Yrotation Zrotation
											JOINT RightHandThumb4
											{
												OFFSET -5.616882 -3.242905 3.242910
												CHANNELS 3 Xrotation Yrotation Zrotation
												End Site
												{
													OFFSET 1.254608 7.132141 0.375429
												}
											}
										}
									}
								}
								JOINT RightHandIndex1
								{
									OFFSET -21.310577 -0.490082 6.209344
									CHANNELS 3 Xrotation Yrotation Zrotation
									JOINT RightHandIndex2
									{
										OFFSET -7.536453 0.000000 0.000000
										CHANNELS 3 Xrotation Yrotation Zrotation
										JOINT RightHandIndex3
										{
											OFFSET -7.512344 0.000000 0.000000
											CHANNELS 3 Xrotation Yrotation Zrotation
											JOINT RightHandIndex4
											{
												OFFSET -10.212402 0.000000 0.000001
												CHANNELS 3 Xrotation Yrotation Zrotation
												End Site
												{
													OFFSET 5.180801 8.690506 1.388433
												}
											}
										}
									}
								}
								JOINT RightHandMiddle1
								{
									OFFSET -23.373947 0.000000 0.000001
									CHANNELS 3 Xrotation Yrotation Zrotation
									JOINT RightHandMiddle2
									{
										OFFSET -6.996567 0.000000 0.000000
										CHANNELS 3 Xrotation Yrotation Zrotation
										JOINT RightHandMiddle3
										{
											OFFSET -7.015945 0.000000 0.000000
											CHANNELS 3 Xrotation Yrotation Zrotation
											JOINT RightHandMiddle4
											{
												OFFSET -7.721573 0.000000 0.000000
												CHANNELS 3 Xrotation Yrotation Zrotation
												End Site
												{
													OFFSET 4.651108 6.158463 0.251582
												}
											}
										}
									}
								}
								JOINT RightHandRing1
								{
									OFFSET -22.726120 -0.094986 -6.500475
									CHANNELS 3 Xrotation Yrotation Zrotation
									JOINT RightHandRing2
									{
										OFFSET -6.408615 0.000000 0.000000
										CHANNELS 3 Xrotation Yrotation Zrotation
										JOINT RightHandRing3
										{
											OFFSET -6.150223 0.000000 0.000000
											CHANNELS 3 Xrotation Yrotation Zrotation
											JOINT RightHandRing4
											{
												OFFSET -6.145386 0.000000 0.000000
												CHANNELS 3 Xrotation Yrotation Zrotation
												End Site
												{
													OFFSET 3.671402 4.923981 -0.202372
												}
											}
										}
									}
								}
								JOINT RightHandPinky1
								{
									OFFSET -18.920792 -0.453171 -11.426712
									CHANNELS 3 Xrotation Yrotation Zrotation
									JOINT RightHandPinky2
									{
										OFFSET -4.919586 0.000000 0.000000
										CHANNELS 3 Xrotation Yrotation Zrotation
										JOINT RightHandPinky3
										{
											OFFSET -5.233047 0.000000 0.000000
											CHANNELS 3 Xrotation Yrotation Zrotation
											JOINT RightHandPinky4
											{
												OFFSET -5.571716 0.000000 0.000000
												CHANNELS 3 Xrotation Yrotation Zrotation
												End Site
												{
													OFFSET 3.459808 4.342407 -0.466164
												}
											}
										}
									}
								}
							}
						}
					}
				}
			}
		}
	}
	JOINT LeftUpLeg
	{
		OFFSET 19.899099 -7.885101 -3.429500
		CHANNELS 3 Xrotation Yrotation Zrotation
		JOINT LeftLeg
		{
			OFFSET 1.745560 -36.997807 10.304700
			CHANNELS 3 Xrotation Yrotation Zrotation
			JOINT LeftFoot
			{
				OFFSET -1.745558 -29.803308 -13.615400
				CHANNELS 3 Xrotation Yrotation Zrotation
				JOINT LeftToeBase
				{
					OFFSET 1.181900 -18.539904 15.226099
					CHANNELS 3 Xrotation Yrotation Zrotation
					JOINT LeftToe_End
					{
						OFFSET -0.863701 1.402801 16.534700
						CHANNELS 3 Xrotation Yrotation Zrotation
						End Site
						{
							OFFSET 0.000000 16.616566 0.000000
						}
					}
				}
			}
		}
	}
	JOINT RightUpLeg
	{
		OFFSET -19.899099 -7.885101 -3.429500
		CHANNELS 3 Xrotation Yrotation Zrotation
		JOINT RightLeg
		{
			OFFSET -1.745560 -36.997807 10.304700
			CHANNELS 3 Xrotation Yrotation Zrotation
			JOINT RightFoot
			{
				OFFSET 1.745558 -29.803308 -13.615400
				CHANNELS 3 Xrotation Yrotation Zrotation
				JOINT RightToeBase
				{
					OFFSET -1.181900 -18.539904 15.226099
					CHANNELS 3 Xrotation Yrotation Zrotation
					JOINT RightToe_End
					{
						OFFSET 0.863701 1.402801 16.534700
						CHANNELS 3 Xrotation Yrotation Zrotation
						End Site
						{
							OFFSET 0.000000 16.616566 0.000000
						}
					}
				}
			}
		}
	}
}
MOTION
Frames: 5
Frame Time: 0.033333
1.123785 94.483292 2.762955 -4.056586 6.150114 -1.698609 4.903023 -0.342390 1.154559 5.814419 -0.121265 1.891508 -4.300232 -0.608022 -1.115062 1.350188 -1.122393 0.966693 4.179221 -0.441315 -1.260401 -0.000000 0.000000 0.000000 1.687477 -7.781254 -3.495002 -0.672228 -2.004134 -76.954259 6.346051 -10.905310 1.751715 -0.215854 -0.744145 3.407758 -3.785173 8.458481 12.351831 7.446385 11.613960 -1.292849 1.129218 8.847060 5.185841 0.000000 0.000001 -0.000002 -6.437516 11.282584 -19.770954 0.046548 0.255541 -30.857685 0.023048 0.140370 -11.459630 0.000000 -0.000001 -0.000004 -4.873159 10.020074 -7.875477 -0.046669 0.340074 -30.085928 0.076675 0.707053 -12.602560 -0.000001 -0.000001 0.000003 -1.935799 5.644679 -11.386996 0.103678 0.660969 -24.767490 0.039915 0.054414 -9.474900 0.000001 -0.000000 0.000006 2.384589 3.620129 -6.815664 0.010686 0.256833 -17.103528 0.043231 0.181881 -12.954535 -0.000001 0.000001 0.000003 2.088906 10.213765 4.097139 1.436100 3.709022 75.271929 15.720258 15.338575 -4.555629 -4.674562 -0.553354 -0.689929 -0.464232 -8.992490 -6.084891 7.446414 -11.613868 1.293179 1.129273 -8.847049 -5.185679 -0.000005 0.000002 0.000001 2.362097 -3.634251 8.333175 0.017450 -0.256810 18.622528 0.048080 -0.182348 14.473318 -0.000003 0.000000 0.000002 -1.983687 -5.671294 13.530214 0.128389 -0.657099 26.914111 0.041937 -0.053319 11.621406 -0.000003 0.000005 -0.000008 -4.978024 -10.100830 10.695802 -0.029844 -0.342552 32.923926 0.111702 -0.702971 15.440717 0.000001 0.000001 -0.000005 -6.474119 -11.323114 23.226063 0.061856 -0.253004 34.317828 0.031525 -0.139487 14.919925 -0.000001 0.000000 0.000000 -2.705238 10.847834 11.101231 11.910807 -7.001718 0.061905 -6.407654 1.049832 -6.997868 -0.000185 -0.000006 0.000004 -0.000000 -0.000001 0.000000 -1.055168 -5.881117 1.263150 9.408058 3.538539 -0.492879 -4.140477 -0.096060 0.575122 -0.000123 -0.000000 -0.000000 -0.000000 -0.000000 0.000000 
1.145358 94.432777 2.744892 -3.778164 5.932712 -1.726523 4.617569 -0.332287 1.218527 5.879319 -0.127802 1.849368 -4.225854 -0.608798 -1.155327 1.090926 -1.280050 1.015867 4.092972 -0.579005 -1.192047 0.000001 0.000000 0.000000 1.727696 -7.733565 -3.315561 -0.709051 -2.070292 -77.130020 6.494381 -10.747336 1.758129 -0.206918 -0.775219 3.322403 -3.728400 8.346605 12.215909 7.389088 11.489300 -1.293360 1.087880 8.726630 5.145552 -0.000000 -0.000003 -0.000006 -6.502098 11.055566 -19.454636 0.045361 0.254218 -30.556067 0.022157 0.139201 -11.192504 -0.000000 0.000002 -0.000002 -4.922657 9.850511 -7.593202 -0.047048 0.338917 -29.806525 0.073941 0.705686 -12.299172 0.000000 0.000000 0.000003 -1.960269 5.536578 -11.146561 0.102210 0.659764 -24.490786 0.038885 0.053209 -9.238678 0.000001 0.000000 0.000006 2.370694 3.555720 -6.596622 0.010269 0.256705 -16.858136 0.042050 0.181773 -12.701425 -0.000002 -0.000002 0.000001 2.157895 10.197425 3.916398 1.484744 4.143229 75.323272 15.645892 15.351292 -4.602870 -5.029339 -0.619061 -0.692626 -0.459469 -8.835367 -6.032880 7.392025 -11.512854 1.297865 1.129978 -8.832242 -5.172528 0.000000 0.000001 0.000002 2.362720 -3.650899 8.365926 0.017330 -0.256766 18.548591 0.047960 -0.182351 14.440485 -0.000002 0.000000 -0.000003 -1.984308 -5.681365 13.498669 0.127518 -0.656534 26.752007 0.041601 -0.053017 11.554156 0.000001 0.000002 -0.000001 -4.974411 -10.100686 10.642569 -0.030030 -0.341080 32.710852 0.110507 -0.702453 15.311148 0.000001 -0.000000 -0.000003 -6.473164 -11.306120 23.085420 0.061239 -0.252214 34.117748 0.031016 -0.138850 14.767704 -0.000001 -0.000001 -0.000001 -2.948158 10.666479 11.120843 12.014629 -6.785542 -0.022463 -6.493297 1.171589 -6.982771 -0.009492 -0.018997 0.017604 -0.000000 -0.000000 0.000000 -1.537882 -6.020798 1.220872 9.578537 3.896526 -0.413107 -4.102894 -0.087392 0.464818 -0.000124 -0.183353 -0.000002 -0.000000 0.000000 -0.000000 
1.162231 94.363754 2.719109 -3.477282 5.677118 -1.749555 4.389368 -0.332466 1.230499 5.855633 -0.125518 1.864246 -4.233570 -0.607995 -1.135968 1.160922 -1.424982 0.953996 3.974326 -0.762973 -1.140904 0.000001 -0.000000 -0.000000 1.766696 -7.709995 -3.138674 -0.660017 -2.091085 -77.381358 6.594125 -10.583874 1.745948 -0.189616 -0.762851 3.251247 -3.677472 8.247946 12.096088 7.337390 11.376135 -1.294654 1.032232 8.573620 5.100156 -0.000003 -0.000000 -0.000004 -6.553032 10.827273 -19.084785 0.044218 0.253000 -30.272915 0.021128 0.138270 -10.872123 -0.000000 0.000000 -0.000006 -4.985725 9.691591 -7.211622 -0.047376 0.338644 -29.550971 0.069834 0.703794 -11.873517 -0.000000 0.000001 0.000003 -1.983319 5.439704 -10.879828 0.098588 0.658778 -24.193394 0.037694 0.051711 -8.946906 -0.000001 0.000001 0.000009 2.384255 3.498721 -6.363325 0.009845 0.256507 -16.591322 0.040622 0.181673 -12.388667 -0.000000 0.000001 0.000001 2.227086 10.179941 3.735584 1.806050 4.480880 75.273029 15.668857 15.706269 -4.762255 -5.638825 -1.020649 -0.727562 -0.456099 -8.698357 -5.988229 7.348770 -11.425834 1.300753 1.131444 -8.822931 -5.162361 0.000004 0.000002 0.000002 2.364254 -3.665800 8.374836 0.017118 -0.256646 18.427046 0.047751 -0.182333 14.399847 -0.000001 -0.000001 -0.000002 -1.984920 -5.692295 13.444971 0.126178 -0.655629 26.503630 0.041142 -0.052559 11.460162 -0.000002 -0.000000 -0.000004 -4.971313 -10.100304 10.559729 -0.030328 -0.338854 32.393525 0.108639 -0.701661 15.110643 0.000001 -0.000000 -0.000005 -6.482986 -11.294737 22.881603 0.060419 -0.251198 33.861544 0.030249 -0.137834 14.534275 -0.000002 -0.000002 -0.000001 -3.241764 10.462049 11.119405 12.185159 -6.638861 -0.124942 -6.619290 1.326615 -6.907321 -0.019342 -0.040069 0.042178 0.000000 -0.000001 0.000000 -2.108405 -6.385486 1.183162 9.824867 4.558224 -0.291121 -4.067856 -0.093669 0.248717 -0.000175 -0.366728 -0.000001 -0.000000 0.000000 -0.000000 
1.170918 94.271584 2.681108 -3.164363 5.396065 -1.766040 4.173033 -0.336408 1.222886 5.817138 -0.118791 1.901867 -4.248875 -0.609109 -1.090637 1.178418 -1.638299 1.031648 3.867243 -0.951438 -1.136025 -0.000001 -0.000000 -0.000000 1.803693 -7.769794 -2.917463 -0.567978 -1.995927 -77.669264 6.626491 -10.558023 1.766136 -0.174256 -0.615697 3.218179 -3.629574 8.155883 11.984351 7.288609 11.268689 -1.296489 0.969407 8.404182 5.051927 -0.000002 -0.000002 -0.000008 -6.595395 10.598429 -18.688065 0.043182 0.251816 -29.999198 0.019987 0.137881 -10.524792 0.000001 0.000002 -0.000002 -5.054461 9.537728 -6.780088 -0.047653 0.338406 -29.307454 0.065500 0.702698 -11.386089 -0.000000 0.000000 0.000002 -2.005239 5.348458 -10.599849 0.094873 0.657713 -23.885511 0.036326 0.050041 -8.627090 -0.000000 0.000000 0.000006 2.412120 3.445665 -6.122691 0.009366 0.256334 -16.313738 0.039074 0.181534 -12.045915 0.000000 -0.000000 -0.000001 2.296064 10.160069 3.556013 2.197608 4.801673 75.164340 15.722469 16.164505 -4.949816 -6.466932 -1.597935 -0.800102 -0.453270 -8.568139 -5.946109 7.310954 -11.342488 1.302177 1.133270 -8.815472 -5.153009 -0.000001 -0.000001 0.000001 2.367136 -3.680073 8.375893 0.016882 -0.256533 18.289440 0.047544 -0.182348 14.356515 -0.000003 -0.000003 -0.000001 -1.985544 -5.703545 13.383739 0.124704 -0.654619 26.225882 0.040654 -0.052063 11.357080 0.000000 -0.000002 -0.000007 -4.969687 -10.098373 10.466724 -0.030569 -0.336361 32.040844 0.106518 -0.700761 14.885943 0.000001 -0.000001 -0.000003 -6.495391 -11.285347 22.656687 0.059556 -0.250114 33.586332 0.029362 -0.136712 14.273223 -0.000000 0.000003 -0.000001 -3.584743 10.237955 11.114474 12.424974 -6.558807 -0.250140 -6.781980 1.519803 -6.802327 -0.032248 -0.062640 0.083426 0.000000 -0.000000 0.000000 -2.751070 -6.938662 0.981309 10.170491 4.318751 -0.301655 -4.085733 1.039482 0.352343 -0.000123 -0.550101 0.000004 0.000000 -0.000000 0.000000 
1.164307 94.147835 2.622410 -2.844180 5.090591 -1.774044 3.983373 -0.342595 1.221798 5.770227 -0.114896 1.928956 -4.263775 -0.610678 -1.053248 0.999223 -1.802928 0.994209 3.867233 -1.131647 -1.054850 -0.000000 -0.000000 -0.000000 1.841702 -7.851805 -2.681333 -0.375630 -1.837926 -77.919481 6.618537 -10.773514 1.812275 -0.162244 -0.341626 3.187973 -3.581737 8.063659 11.872962 7.239797 11.161422 -1.298375 0.906295 8.234488 5.003564 0.000001 -0.000001 -0.000005 -6.634636 10.369491 -18.291110 0.042073 0.250599 -29.725540 0.018888 0.137623 -10.176983 -0.000001 0.000002 -0.000005 -5.121195 9.383480 -6.347942 -0.047942 0.338171 -29.063968 0.061620 0.701865 -10.897569 -0.000000 0.000000 0.000005 -2.026284 5.257194 -10.319690 0.091371 0.658316 -23.577436 0.035007 0.048398 -8.306752 0.000000 0.000000 0.000007 2.440736 3.392994 -5.882042 0.008901 0.256136 -16.035826 0.037506 0.181391 -11.702494 0.000000 0.000002 -0.000001 2.350241 10.080780 3.449685 2.692332 5.553234 74.877417 15.751234 16.503175 -5.099936 -7.678421 -2.115318 -0.858912 -0.450161 -8.431440 -5.901848 7.270672 -11.253904 1.303555 1.134794 -8.806258 -5.142834 -0.000001 0.000004 0.000004 2.370233 -3.694992 8.384426 0.016682 -0.256456 18.167034 0.047367 -0.182317 14.315690 0.000000 0.000001 -0.000003 -1.986140 -5.714511 13.329606 0.123385 -0.653684 25.975901 0.040170 -0.051614 11.262538 0.000000 0.000001 -0.000006 -4.966193 -10.094213 10.383651 -0.030824 -0.334114 31.721420 0.104655 -0.699959 14.684044 -0.000003 -0.000001 -0.000005 -6.505462 -11.274230 22.451838 0.058781 -0.249103 33.329117 0.028597 -0.135694 14.038158 0.000002 -0.000001 -0.000001 -3.990036 9.994616 11.121663 12.751784 -6.523332 -0.398890 -6.972900 1.743226 -6.688870 -0.055424 -0.086080 0.118391 -0.000000 0.000001 0.000000 -3.500583 -7.695106 0.847841 10.638315 4.787791 -0.210899 -4.109167 1.708407 0.185339 -0.000121 -0.733455 -0.000003 0.000000 0.000000 0.000000 
